<?xml version="1.0" encoding="UTF-8"?>
<svg id="Layer_2" data-name="Layer 2" xmlns="http://www.w3.org/2000/svg" viewBox="0 0 562.51 36.77">
  <defs>
    <style>
      .cls-1 {
        fill: #930c0c;
      }
    </style>
  </defs>
  <g id="Layer_1-2" data-name="Layer 1">
    <g>
      <path d="M26.37,20.77L30.04.48h6.89l-6.61,29.23h-7.42l-4.44-20.6-4.39,20.6h-7.38L0,.48h6.98l3.99,20.2L14.92.48h7.14l4.31,20.28Z"/>
      <path d="M58.71,30.24c-4.52,0-8.17-1.38-10.97-4.15-2.8-2.77-4.19-6.42-4.19-10.97s1.4-8.2,4.19-10.97c2.8-2.77,6.45-4.15,10.97-4.15s8.14,1.38,10.95,4.15c2.81,2.77,4.21,6.43,4.21,10.97s-1.4,8.2-4.21,10.97c-2.81,2.77-6.46,4.15-10.95,4.15ZM53.08,22.08c1.49,1.65,3.37,2.48,5.62,2.48s4.13-.83,5.62-2.48c1.49-1.65,2.24-3.97,2.24-6.96s-.75-5.3-2.24-6.96c-1.49-1.65-3.37-2.48-5.62-2.48s-4.13.83-5.62,2.48c-1.49,1.65-2.24,3.97-2.24,6.96s.75,5.3,2.24,6.96Z"/>
      <path d="M95.04,18.71h-4.68v11.01h-6.89V.48h11.25c1.61,0,3.05.08,4.31.24,1.26.16,2.47.44,3.61.85,1.14.4,2.1.94,2.86,1.61.77.67,1.37,1.54,1.81,2.6.44,1.06.67,2.31.67,3.73,0,3.9-1.91,6.59-5.73,8.06l7.22,12.14h-8.1l-6.33-11.01ZM90.36,6.29v6.61h4.56c1.85,0,3.28-.23,4.27-.71s1.49-1.34,1.49-2.6-.5-2.13-1.51-2.6-2.43-.71-4.25-.71h-4.56Z"/>
      <path d="M125.48,23.63h14.03v6.09h-20.93V.48h6.89v23.14Z"/>
      <path d="M157.81.48c11.4,0,17.1,4.87,17.1,14.6s-5.7,14.64-17.1,14.64h-9.64V.48h9.64ZM157.93,6.29h-2.86v17.62h2.86c1.13,0,2.12-.05,2.98-.16.86-.11,1.73-.35,2.6-.72.87-.38,1.59-.87,2.16-1.49.56-.62,1.03-1.47,1.39-2.56.36-1.09.54-2.38.54-3.89s-.18-2.76-.54-3.85c-.36-1.09-.83-1.95-1.39-2.58-.56-.63-1.28-1.13-2.16-1.49-.87-.36-1.74-.6-2.6-.71s-1.85-.16-2.98-.16Z"/>
      <path class="cls-1" d="M188.58.48h6.33c-1.59,2.45-2.88,5.27-3.87,8.47-1,3.2-1.49,6.43-1.49,9.68s.5,6.44,1.51,9.66c1.01,3.21,2.29,6.04,3.85,8.49h-6.33c-1.5-2.12-2.84-4.8-4.01-8.04-1.17-3.24-1.75-6.61-1.75-10.1s.58-6.9,1.75-10.12c1.17-3.23,2.51-5.9,4.01-8.02Z"/>
      <path d="M210.19,29.72h-6.89V.48h6.89v29.23Z"/>
      <path d="M234.79,29.72l-6.57-23.39v23.39h-6.69V.48h10.89l5.6,20.97L243.74.48h10.77v29.23h-6.69V6.29l-6.53,23.43h-6.49Z"/>
      <path d="M273.57.48h7.58l11.05,29.23h-7.5l-1.77-5.2h-11.29l-1.73,5.2h-7.34L273.57.48ZM273.53,18.91h7.54l-3.75-11.13-3.79,11.13Z"/>
      <path d="M325.87,9.64h-6.77c-.32-1.1-1.04-2.04-2.14-2.8-1.1-.77-2.53-1.15-4.27-1.15-2.2,0-4.01.81-5.42,2.42-1.41,1.61-2.12,3.91-2.12,6.9s.69,5.39,2.08,7.05c1.38,1.67,3.25,2.5,5.58,2.5,1.83,0,3.37-.39,4.62-1.17s1.88-2.03,1.88-3.75v-.56h-7.06v-5.64h13.95v16.29h-5.28l-.2-3.23c-1.85,2.5-4.84,3.75-8.95,3.75s-7.7-1.37-10.18-4.11c-2.49-2.74-3.73-6.45-3.73-11.13s1.37-8.21,4.11-10.93c2.74-2.71,6.34-4.07,10.81-4.07,3.33,0,6.18.83,8.55,2.5s3.88,4.04,4.56,7.14Z"/>
      <path d="M337.24.48h22.42v6.05h-15.52v5.12h14.68v6.09h-14.68v5.89h15.52v6.09h-22.42V.48Z"/>
      <path class="cls-1" d="M373.33,36.77h-6.29c1.56-2.45,2.83-5.28,3.83-8.49.99-3.21,1.49-6.43,1.49-9.66s-.5-6.48-1.49-9.68c-1-3.2-2.27-6.02-3.83-8.47h6.29c1.53,2.12,2.88,4.8,4.05,8.04,1.17,3.24,1.75,6.61,1.75,10.1s-.59,6.86-1.77,10.1c-1.18,3.24-2.53,5.92-4.03,8.04Z"/>
      <path d="M412.56,20.77l3.67-20.28h6.89l-6.61,29.23h-7.42l-4.44-20.6-4.39,20.6h-7.38l-6.69-29.23h6.98l3.99,20.2,3.95-20.2h7.14l4.31,20.28Z"/>
      <path d="M444.89,30.24c-4.52,0-8.17-1.38-10.97-4.15-2.8-2.77-4.19-6.42-4.19-10.97s1.4-8.2,4.19-10.97c2.8-2.77,6.45-4.15,10.97-4.15s8.14,1.38,10.95,4.15c2.81,2.77,4.21,6.43,4.21,10.97s-1.4,8.2-4.21,10.97c-2.81,2.77-6.46,4.15-10.95,4.15ZM439.27,22.08c1.49,1.65,3.37,2.48,5.62,2.48s4.13-.83,5.62-2.48c1.49-1.65,2.24-3.97,2.24-6.96s-.75-5.3-2.24-6.96c-1.49-1.65-3.37-2.48-5.62-2.48s-4.13.83-5.62,2.48c-1.49,1.65-2.24,3.97-2.24,6.96s.75,5.3,2.24,6.96Z"/>
      <path d="M481.22,18.71h-4.68v11.01h-6.89V.48h11.25c1.61,0,3.05.08,4.31.24,1.26.16,2.47.44,3.61.85,1.14.4,2.1.94,2.86,1.61.77.67,1.37,1.54,1.81,2.6.44,1.06.67,2.31.67,3.73,0,3.9-1.91,6.59-5.73,8.06l7.22,12.14h-8.1l-6.33-11.01ZM476.54,6.29v6.61h4.56c1.85,0,3.28-.23,4.27-.71s1.49-1.34,1.49-2.6-.5-2.13-1.51-2.6-2.43-.71-4.25-.71h-4.56Z"/>
      <path d="M511.66,12.06l10.6-11.57h8.43l-10.81,11.65,11.37,17.58h-8.31l-7.9-12.34-3.39,3.71v8.63h-6.89V.48h6.89v11.57Z"/>
      <path d="M549.08,5.52c-1.37,0-2.49.25-3.35.75-.86.5-1.29,1.19-1.29,2.08,0,.7.3,1.31.91,1.84.6.52,1.43.89,2.48,1.11l3.99.81c1.21.24,2.2.46,2.98.67s1.71.53,2.78.99,1.93.96,2.56,1.51c.63.55,1.18,1.29,1.65,2.22.47.93.71,1.98.71,3.17,0,2.9-1.23,5.23-3.69,6.97-2.46,1.75-5.32,2.62-8.57,2.62-3.74,0-6.78-.89-9.13-2.66-2.35-1.78-3.8-4.23-4.33-7.38h6.85c.75,2.98,3.01,4.47,6.77,4.47,1.37,0,2.55-.25,3.53-.77.98-.51,1.47-1.32,1.47-2.42,0-.89-.46-1.6-1.39-2.14-.93-.54-2.28-.99-4.05-1.37l-3.55-.72c-6.05-1.29-9.07-4.13-9.07-8.51,0-1.88.62-3.51,1.88-4.88s2.77-2.36,4.56-2.96c1.79-.6,3.69-.91,5.71-.91,3.12,0,5.81.73,8.06,2.2s3.63,3.72,4.11,6.75h-6.81c-.35-1.07-1.03-1.92-2.04-2.52-1.01-.61-2.25-.91-3.73-.91Z"/>
    </g>
  </g>
</svg>